<svg width="53" height="63" viewBox="0 0 53 63" fill="none" xmlns="http://www.w3.org/2000/svg">
<mask id="path-1-outside-1_9_92" maskUnits="userSpaceOnUse" x="-7.5799" y="-3.07675" width="67.9579" height="67.9579" fill="black">
<rect fill="white" x="-7.5799" y="-3.07675" width="67.9579" height="67.9579"/>
<path d="M22.0431 8.00221L24.0159 17.5505C24.3754 19.1479 23.669 20.8255 22.1846 21.5888L16.9445 24.4903C18.7359 31.5209 22.9678 37.7821 28.8234 42.0656L33.4695 38.2853C34.7312 37.1925 36.5513 37.1626 37.8994 38.0917L46.0236 43.4824C47.6478 44.4649 48.1024 46.5581 47.3039 48.2179L43.5284 55.8906C42.7655 57.3663 41.1712 58.2038 39.5144 57.8834C16.6874 53.4687 1.8388 31.4995 6.25353 8.67253C6.57396 7.01573 7.94551 5.84868 9.59927 5.69108L18.1264 5.04853C19.9643 4.92653 21.737 6.12876 22.0431 8.00221Z"/>
</mask>
<path d="M22.0431 8.00221L24.0159 17.5505C24.3754 19.1479 23.669 20.8255 22.1846 21.5888L16.9445 24.4903C18.7359 31.5209 22.9678 37.7821 28.8234 42.0656L33.4695 38.2853C34.7312 37.1925 36.5513 37.1626 37.8994 38.0917L46.0236 43.4824C47.6478 44.4649 48.1024 46.5581 47.3039 48.2179L43.5284 55.8906C42.7655 57.3663 41.1712 58.2038 39.5144 57.8834C16.6874 53.4687 1.8388 31.4995 6.25353 8.67253C6.57396 7.01573 7.94551 5.84868 9.59927 5.69108L18.1264 5.04853C19.9643 4.92653 21.737 6.12876 22.0431 8.00221Z" fill="white"/>
<path d="M22.0431 8.00221L17.1085 8.80843L17.1253 8.91158L17.1465 9.01393L22.0431 8.00221ZM24.0159 17.5505L19.1193 18.5622L19.1283 18.6054L19.1379 18.6484L24.0159 17.5505ZM22.1846 21.5888L19.8982 17.1421L19.8298 17.1773L19.7625 17.2146L22.1846 21.5888ZM16.9445 24.4903L14.5224 20.1161L11.1466 21.9855L12.0993 25.7249L16.9445 24.4903ZM28.8234 42.0656L25.8714 46.1011L28.9859 48.3795L31.9791 45.944L28.8234 42.0656ZM33.4695 38.2853L36.6252 42.1637L36.6849 42.1151L36.743 42.0648L33.4695 38.2853ZM37.8994 38.0917L35.0619 42.2086L35.0982 42.2336L35.1349 42.2579L37.8994 38.0917ZM46.0236 43.4824L43.2591 47.6487L43.3462 47.7064L43.4356 47.7605L46.0236 43.4824ZM47.3039 48.2179L51.7902 50.4255L51.8001 50.4055L51.8097 50.3854L47.3039 48.2179ZM43.5284 55.8906L47.97 58.1866L47.9928 58.1426L48.0146 58.0982L43.5284 55.8906ZM9.59927 5.69108L9.22357 0.705214L9.17421 0.708933L9.12493 0.71363L9.59927 5.69108ZM18.1264 5.04853L17.7952 0.0595096L17.773 0.0609877L17.7507 0.062665L18.1264 5.04853ZM22.0431 8.00221L17.1465 9.01393L19.1193 18.5622L24.0159 17.5505L28.9125 16.5388L26.9396 6.9905L22.0431 8.00221ZM24.0159 17.5505L19.1379 18.6484C19.0335 18.1845 19.2128 17.4946 19.8982 17.1421L22.1846 21.5888L24.4709 26.0354C28.1253 24.1564 29.7173 20.1112 28.8939 16.4527L24.0159 17.5505ZM22.1846 21.5888L19.7625 17.2146L14.5224 20.1161L16.9445 24.4903L19.3666 28.8645L24.6067 25.9629L22.1846 21.5888ZM16.9445 24.4903L12.0993 25.7249C14.1774 33.8806 19.0786 41.1321 25.8714 46.1011L28.8234 42.0656L31.7755 38.0301C26.8569 34.4321 23.2944 29.1612 21.7897 23.2558L16.9445 24.4903ZM28.8234 42.0656L31.9791 45.944L36.6252 42.1637L33.4695 38.2853L30.3139 34.4069L25.6678 38.1873L28.8234 42.0656ZM33.4695 38.2853L36.743 42.0648C36.1604 42.5694 35.4534 42.4784 35.0619 42.2086L37.8994 38.0917L40.7368 33.9748C37.6492 31.8467 33.302 31.8157 30.196 34.5059L33.4695 38.2853ZM37.8994 38.0917L35.1349 42.2579L43.2591 47.6487L46.0236 43.4824L48.788 39.3161L40.6638 33.9254L37.8994 38.0917ZM46.0236 43.4824L43.4356 47.7605C43.031 47.5158 42.8049 47.137 42.7262 46.8274C42.6551 46.5473 42.6867 46.2821 42.7982 46.0504L47.3039 48.2179L51.8097 50.3854C53.5638 46.7389 52.7446 41.7044 48.6115 39.2042L46.0236 43.4824ZM47.3039 48.2179L42.8177 46.0103L39.0421 53.683L43.5284 55.8906L48.0146 58.0982L51.7902 50.4255L47.3039 48.2179ZM43.5284 55.8906L39.0867 53.5946C39.2803 53.22 39.8131 52.8485 40.4638 52.9744L39.5144 57.8834L38.565 62.7925C42.5293 63.5592 46.2507 61.5127 47.97 58.1866L43.5284 55.8906ZM39.5144 57.8834L40.4638 52.9744C20.348 49.084 7.27218 29.7378 11.1626 9.62193L6.25353 8.67253L1.3445 7.72312C-3.59458 33.2613 13.0268 57.8534 38.565 62.7925L39.5144 57.8834ZM6.25353 8.67253L11.1626 9.62193C11.0367 10.2726 10.4934 10.6285 10.0736 10.6685L9.59927 5.69108L9.12493 0.71363C5.39761 1.06883 2.11119 3.75882 1.3445 7.72312L6.25353 8.67253ZM9.59927 5.69108L9.97497 10.6769L18.5021 10.0344L18.1264 5.04853L17.7507 0.062665L9.22357 0.705214L9.59927 5.69108ZM18.1264 5.04853L18.4576 10.0376C18.2011 10.0546 17.9432 9.98507 17.7099 9.81461C17.4519 9.62615 17.1847 9.27514 17.1085 8.80843L22.0431 8.00221L26.9776 7.196C26.1988 2.42879 21.8328 -0.208504 17.7952 0.0595096L18.1264 5.04853Z" fill="#069457" mask="url(#path-1-outside-1_9_92)"/>
</svg>
