<svg width="46" height="38" viewBox="0 0 46 38" fill="none" xmlns="http://www.w3.org/2000/svg">
<path d="M10.0871 1.43916L41.9958 7.61029C43.9901 7.99598 45.3513 10.0098 44.9656 12.0041C44.7282 13.2314 43.9069 14.1866 42.8529 14.6989L23.7902 23.9825C22.7363 24.4948 21.5857 24.2723 20.7988 23.404L6.5721 7.68218C5.78517 6.81383 5.45592 5.63614 5.69327 4.40888C6.07897 2.41459 8.0161 1.03863 10.0871 1.43916ZM4.74387 9.31792L18.9557 25.1164C20.4677 26.7616 22.8455 27.2214 24.8619 26.2586L44.0162 16.9132L40.9306 32.8675C40.3966 35.6289 37.7568 37.3464 35.0722 36.8271L5.61794 31.1307C2.8566 30.5967 1.12427 28.0336 1.65831 25.2723L4.74387 9.31792Z" fill="#069457"/>
</svg>
