<svg width="67" height="82" viewBox="0 0 67 82" fill="none" xmlns="http://www.w3.org/2000/svg">
<mask id="path-1-outside-1_9_87" maskUnits="userSpaceOnUse" x="-9.82033" y="-3.14953" width="86.7049" height="86.7049" fill="black">
<rect fill="white" x="-9.82033" y="-3.14953" width="86.7049" height="86.7049"/>
<path d="M27.7242 9.66962L30.3546 22.4007C30.8339 24.5305 29.8921 26.7673 27.9128 27.785L20.9261 31.6538C23.3146 41.0278 28.9571 49.3761 36.7646 55.0875L42.9594 50.0471C44.6417 48.59 47.0684 48.5501 48.8659 49.7889L59.6982 56.9765C61.8638 58.2866 62.4699 61.0774 61.4053 63.2905L56.3712 73.5208C55.3541 75.4884 53.2284 76.6051 51.0193 76.1779C20.5833 70.2916 0.78513 40.9994 6.67144 10.5634C7.09867 8.3543 8.92741 6.79824 11.1324 6.5881L22.5019 5.73137C24.9524 5.56871 27.316 7.17168 27.7242 9.66962Z"/>
</mask>
<path d="M27.7242 9.66962L30.3546 22.4007C30.8339 24.5305 29.8921 26.7673 27.9128 27.785L20.9261 31.6538C23.3146 41.0278 28.9571 49.3761 36.7646 55.0875L42.9594 50.0471C44.6417 48.59 47.0684 48.5501 48.8659 49.7889L59.6982 56.9765C61.8638 58.2866 62.4699 61.0774 61.4053 63.2905L56.3712 73.5208C55.3541 75.4884 53.2284 76.6051 51.0193 76.1779C20.5833 70.2916 0.78513 40.9994 6.67144 10.5634C7.09867 8.3543 8.92741 6.79824 11.1324 6.5881L22.5019 5.73137C24.9524 5.56871 27.316 7.17168 27.7242 9.66962Z" fill="white"/>
<path d="M27.7242 9.66962L22.7896 10.4758L22.8064 10.579L22.8276 10.6813L27.7242 9.66962ZM30.3546 22.4007L25.458 23.4124L25.467 23.4556L25.4766 23.4985L30.3546 22.4007ZM27.9128 27.785L25.6264 23.3384L25.558 23.3736L25.4907 23.4108L27.9128 27.785ZM20.9261 31.6538L18.504 27.2796L15.1281 29.1489L16.0809 32.8883L20.9261 31.6538ZM36.7646 55.0875L33.8126 59.123L36.9271 61.4014L39.9203 58.9659L36.7646 55.0875ZM42.9594 50.0471L46.1151 53.9255L46.1748 53.8769L46.2329 53.8265L42.9594 50.0471ZM48.8659 49.7889L46.0285 53.9058L46.0647 53.9308L46.1014 53.9552L48.8659 49.7889ZM59.6982 56.9765L56.9337 61.1428L57.0208 61.2006L57.1102 61.2547L59.6982 56.9765ZM61.4053 63.2905L65.8916 65.4982L65.9014 65.4781L65.9111 65.458L61.4053 63.2905ZM56.3712 73.5208L60.8129 75.8168L60.8356 75.7728L60.8575 75.7284L56.3712 73.5208ZM11.1324 6.5881L10.7567 1.60224L10.7074 1.60596L10.6581 1.61066L11.1324 6.5881ZM22.5019 5.73137L22.1708 0.742352L22.1485 0.743831L22.1262 0.745508L22.5019 5.73137ZM27.7242 9.66962L22.8276 10.6813L25.458 23.4124L30.3546 22.4007L35.2512 21.389L32.6207 8.6579L27.7242 9.66962ZM30.3546 22.4007L25.4766 23.4985C25.4802 23.5142 25.4732 23.5095 25.4858 23.481C25.4932 23.4643 25.5082 23.438 25.5357 23.4084C25.5649 23.3771 25.5982 23.3529 25.6264 23.3384L27.9128 27.785L30.1992 32.2316C34.3483 30.0982 36.1758 25.4938 35.2326 21.3029L30.3546 22.4007ZM27.9128 27.785L25.4907 23.4108L18.504 27.2796L20.9261 31.6538L23.3482 36.0279L30.3349 32.1592L27.9128 27.785ZM20.9261 31.6538L16.0809 32.8883C18.7561 43.3875 25.0679 52.7261 33.8126 59.123L36.7646 55.0875L39.7167 51.052C32.8463 46.0261 27.8731 38.6681 25.7713 30.4192L20.9261 31.6538ZM36.7646 55.0875L39.9203 58.9659L46.1151 53.9255L42.9594 50.0471L39.8038 46.1687L33.609 51.2091L36.7646 55.0875ZM42.9594 50.0471L46.2329 53.8265C46.2089 53.8473 46.174 53.8692 46.1341 53.8846C46.0964 53.8991 46.0664 53.9032 46.0482 53.9038C46.017 53.905 46.0152 53.8967 46.0285 53.9058L48.8659 49.7889L51.7033 45.672C48.1663 43.2342 43.2125 43.2132 39.6859 46.2676L42.9594 50.0471ZM48.8659 49.7889L46.1014 53.9552L56.9337 61.1428L59.6982 56.9765L62.4626 52.8103L51.6304 45.6227L48.8659 49.7889ZM59.6982 56.9765L57.1102 61.2547C57.0591 61.2238 57.0058 61.1751 56.9658 61.1194C56.9291 61.0683 56.9187 61.0327 56.917 61.0261C56.9158 61.021 56.9194 61.0337 56.9168 61.0594C56.9144 61.084 56.9077 61.1062 56.8995 61.1231L61.4053 63.2905L65.9111 65.458C67.9313 61.2583 66.9606 55.5261 62.2861 52.6984L59.6982 56.9765ZM61.4053 63.2905L56.9191 61.0829L51.885 71.3132L56.3712 73.5208L60.8575 75.7284L65.8916 65.4982L61.4053 63.2905ZM56.3712 73.5208L51.9295 71.2248C51.8977 71.2864 51.8719 71.2926 51.8895 71.2837C51.8981 71.2793 51.914 71.2733 51.9352 71.2702C51.9453 71.2688 51.9544 71.2684 51.9616 71.2685C51.9689 71.2687 51.9716 71.2694 51.9687 71.2689L51.0193 76.1779L50.0699 81.0869C54.5865 81.9604 58.8393 79.6348 60.8129 75.8168L56.3712 73.5208ZM51.0193 76.1779L51.9687 71.2689C24.2439 65.9069 6.21851 39.2376 11.5805 11.5128L6.67144 10.5634L1.7624 9.61397C-4.64825 42.7612 16.9227 74.6763 50.0699 81.0869L51.0193 76.1779ZM6.67144 10.5634L11.5805 11.5128C11.581 11.5099 11.5807 11.5126 11.5781 11.5195C11.5756 11.5262 11.5718 11.5345 11.5667 11.5434C11.556 11.5619 11.5444 11.5744 11.5372 11.5808C11.5224 11.5938 11.5377 11.5721 11.6068 11.5656L11.1324 6.5881L10.6581 1.61066C6.37951 2.01839 2.6359 5.09739 1.7624 9.61397L6.67144 10.5634ZM11.1324 6.5881L11.5081 11.574L22.8776 10.7172L22.5019 5.73137L22.1262 0.745508L10.7567 1.60224L11.1324 6.5881ZM22.5019 5.73137L22.8331 10.7204C22.8518 10.7192 22.8749 10.7212 22.8987 10.7281C22.9235 10.7353 22.9339 10.7434 22.9296 10.7403C22.9242 10.7363 22.895 10.7134 22.8612 10.6603C22.8244 10.6024 22.7992 10.5348 22.7896 10.4758L27.7242 9.66962L32.6587 8.86341C31.7778 3.47171 26.8209 0.433674 22.1708 0.742352L22.5019 5.73137Z" fill="#EE3124" mask="url(#path-1-outside-1_9_87)"/>
</svg>
