<svg width="102" height="85" viewBox="0 0 102 85" fill="none" xmlns="http://www.w3.org/2000/svg">
<path d="M21.5569 2.49266L93.3515 16.3777C97.8387 17.2455 100.901 21.7766 100.033 26.2638C99.4994 29.0251 97.6514 31.1743 95.28 32.327L52.3889 53.2152C50.0175 54.3679 47.4288 53.8672 45.6582 51.9134L13.6481 16.5395C11.8775 14.5857 11.1367 11.9359 11.6708 9.17454C12.5386 4.68737 16.8972 1.59147 21.5569 2.49266ZM9.53462 20.2199L41.5113 55.7664C44.9133 59.468 50.2634 60.5027 54.8002 58.3365L97.8973 37.3091L90.9547 73.2065C89.7532 79.4195 83.8137 83.2838 77.7733 82.1156L11.5013 69.2987C5.28828 68.0971 1.39052 62.3302 2.59211 56.1172L9.53462 20.2199Z" fill="#EE3124"/>
</svg>
